<svg width="40" height="40" viewBox="0 0 40 40" fill="none" xmlns="http://www.w3.org/2000/svg">
<path fill-rule="evenodd" clip-rule="evenodd" d="M20.0002 18.3333C21.3262 18.3333 22.598 17.8065 23.5357 16.8688C24.4734 15.9312 25.0002 14.6594 25.0002 13.3333C25.0002 12.0072 24.4734 10.7355 23.5357 9.79778C22.598 8.8601 21.3262 8.33331 20.0002 8.33331C18.6741 8.33331 17.4023 8.8601 16.4646 9.79778C15.5269 10.7355 15.0002 12.0072 15.0002 13.3333C15.0002 14.6594 15.5269 15.9312 16.4646 16.8688C17.4023 17.8065 18.6741 18.3333 20.0002 18.3333ZM8.3335 33.3333C8.3335 31.8012 8.63526 30.2841 9.22157 28.8687C9.80787 27.4532 10.6672 26.1671 11.7506 25.0837C12.8339 24.0004 14.1201 23.141 15.5355 22.5547C16.951 21.9684 18.4681 21.6666 20.0002 21.6666C21.5323 21.6666 23.0493 21.9684 24.4648 22.5547C25.8803 23.141 27.1664 24.0004 28.2497 25.0837C29.3331 26.1671 30.1925 27.4532 30.7788 28.8687C31.3651 30.2841 31.6668 31.8012 31.6668 33.3333H8.3335Z" fill="#5B6871"/>
</svg>
